# xmcd
#
# Track frame offsets:
#	150
#	12446
#	27242
#	40186
#	54594
#	68419
#	84182
#	96692
#	111638
#	123248
#
# Disc length: 1796 seconds
#
# Revision: 0
# Processed by: cddbd v1.5.2PL0 Copyright (c) Steve Scherf et al.
# Submitted via: EasyCDDAExtractor 16.0.6.1
#
DISCID=8007020a
DTITLE=Συλλογικός δίσκος - Λαϊκό τραγούδι 1954-1967, 1963-1
DYEAR=2008
DGENRE=Λαϊκή
TTITLE0=Αγγελόπουλος Μανώλης-Καλδάρας Απόστολος - Όσο αξίζεις εσύ [Απόστολος Κ
TTITLE0=αλδάρας]
TTITLE1=Γαβαλάς Πάνος-Κούρτη Ρία - Θα φύγω μακριά σου [Πάνος Γαβαλάς-Στέλιος Κ
TTITLE1=ορσαβίδης]
TTITLE2=Μπιθικώτσης Γρηγόρης - Τι τραβάω, τι τραβάω [Απόστολος Καλδάρας]
TTITLE3=Ρεπάνης Αντώνης - Όλος ο κόσμος με μισεί [Μπάμπης Μπακάλης-Κώστας Βίρβ
TTITLE3=ος]
TTITLE4=Μαρκάκης Μπάμπης-Κολλητήρη Σοφία - Πληγωμένοι κι οι δυό [Μπάμπης Μπακά
TTITLE4=λης]
TTITLE5=Γαβαλάς Πάνος-Κούρτη Ρία - Δεν με πονάς, δεν μ' αγαπάς [Π. Γαβαλάς/Ανα
TTITLE5=στ. Κουλούρης-Στέλιος Κορσαβίδης]
TTITLE6=Αναγνωστάκης Πέτρος-Αστέρη Ανθή - Περπατώ και σφυρίζω θλιμμένα [Μπάμπη
TTITLE6=ς Μπακάλης-Κώστας Βίρβος]
TTITLE7=Περπινιάδης Βαγγέλης-Λαμπράκη Χαρούλα - Δεν σού μοιάζει καμμιά [Μπάμπη
TTITLE7=ς Μπακάλης]
TTITLE8=Λύδια Γιώτα-Καλδάρας Απόστολος - Όταν πέσεις σ' άλλα χέρια [Απόστολος 
TTITLE8=Καλδάρας]
TTITLE9=Γαβαλάς Πάνος-Κούρτη Ρία - Τέτοιος είμαι δυστυχώς [Απόστολος Καλδάρας]
EXTD=
EXTT0=
EXTT1=
EXTT2=
EXTT3=
EXTT4=
EXTT5=
EXTT6=
EXTT7=
EXTT8=
EXTT9=
PLAYORDER=
